<?xml version="1.0" encoding="utf-8"?>
<!-- Generator: Adobe Illustrator 22.0.1, SVG Export Plug-In . SVG Version: 6.00 Build 0)  -->
<svg version="1.1" id="圖層_1" xmlns="http://www.w3.org/2000/svg" xmlns:xlink="http://www.w3.org/1999/xlink" x="0px" y="0px"
	 viewBox="0 0 389.5 319.8" style="enable-background:new 0 0 389.5 319.8;" xml:space="preserve">
<style type="text/css">
	.st0{fill:#4A270E;}
</style>
<g>
	<path class="st0" d="M165.5,188.3c-53.5,0-107,0-160.5,0c-5,0-5.1,0-5.1-5.1c0-4.2,0-8.3,0-12.5c0-3.2,0.3-3.5,3.6-3.5
		c12.3,0,24.7,0,37,0c13.6,0,27.2,0,40.7,0c4.3,0,4.3,0,5.6-4.1c16-51,32.1-102,48.1-153.1c0.8-2.6,1.7-5.2,2.5-7.9
		C138,0.7,139,0,140.5,0c0.9,0,1.8,0,2.7,0C223.8,0,304.4,0,385,0c5.2,0,5.2,0,3.6,5.1c-18.6,59.1-37.2,118.3-55.8,177.4
		c-0.4,1.1-0.8,2.2-1.1,3.3c-0.5,1.8-1.6,2.6-3.5,2.5c-1.2,0-2.3,0-3.5,0C271.7,188.3,218.6,188.3,165.5,188.3z M257.6,21
		c-33.2,0-66.5,0-99.7,0c-4.3,0-4.3,0-5.6,4.1c-14.4,45.9-28.8,91.7-43.2,137.6c-1.5,4.7-1.4,4.8,3.5,4.8c29.1,0,58.2,0,87.2,0
		c7.6,0,15.2,0,22.7,0c3.1,0,3.5-0.6,1.9-3.4c-3.6-6.4-7.2-12.8-10.7-19.2c-0.9-1.6-2-2.3-3.8-2.3c-3.2,0.1-6.5,0.1-9.7-0.1
		c-15.2-1-26.5-8.3-32.9-22.1c-6.6-14.1-4.9-27.9,4.8-40.2c7.8-9.9,18.2-14.4,30.8-14.4c46.2,0,92.3,0,138.5,0c1.2,0,2.3-0.1,3.5,0
		c2,0.1,3-0.8,3.6-2.7c4-13,8.2-26.1,12.3-39.1c0.9-2.7,0.6-3-2.3-3.1c-0.9,0-1.8,0-2.7,0C322.9,21,290.3,21,257.6,21z M285,86.7
		c-17.3,0-34.6,0-52,0c-3.7,0-3.9,0.2-3.9,3.8c0,12.1,0,24.2,0,36.2c0,1.9,0.4,3.6,1.3,5.2c6,10.6,12,21.1,17.8,31.8
		c1.5,2.7,3.2,3.7,6.3,3.7c18.9-0.1,37.8-0.1,56.7-0.1c4.3,0,4.3,0,5.6-4.1c7.6-24.1,15.1-48.1,22.7-72.2c0.2-0.6,0.4-1.3,0.6-1.9
		c0.6-1.8-0.2-2.5-1.9-2.5c-0.9,0-1.8,0-2.7,0C318.6,86.7,301.8,86.7,285,86.7z M208.1,104.3c0-4.9,0-9.8,0-14.7
		c0-2-0.8-2.9-2.8-2.9c-2.2,0-4.3,0-6.5,0.4c-6.5,1.2-11,5-13.3,11.2c-2.2,6.2-1.2,12,3,17.1c4.1,5,9.6,6.5,15.9,6.2
		c3.3-0.1,3.6-0.3,3.6-3.6C208.1,113.4,208.1,108.8,208.1,104.3z"/>
	<path class="st0" d="M231.3,300.4c0-5.1,0.1-10.2,0-15.2c0-2.2,0.8-3.1,3.1-3.1c8.7,0.1,17.3,0.1,26,0c2.3,0,3,1,3.1,3.1
		c0.1,5.9,0.2,5.9-5.8,5.9c-3.7,0-7.5,0-11.2,0c-1.7,0-2.9,0.5-2.9,2.6c0,2,1.4,2.2,2.9,2.2c3.7,0,7.5,0.1,11.2,0
		c2,0,2.8,0.9,2.8,2.8c0.2,5.7,0.2,5.8-5.4,5.8c-3,0-6,0-9,0c-1.7,0-2.6,0.7-2.6,2.5c0,1.8,0.7,2.8,2.6,2.8c4.7,0,9.3,0,14,0
		c3.2,0,3.5,0.3,3.5,3.4c0.1,5.6,0.1,5.6-5.5,5.6c-7.7,0-15.5,0-23.2,0c-3.3,0-3.5-0.3-3.5-3.6C231.2,310.4,231.3,305.4,231.3,300.4
		z"/>
	<path class="st0" d="M142.5,297.5c-0.8,0-1.7-0.1-2.5,0c-1.9,0.2-3-0.5-3.6-2.5c-0.8-3-3-4.4-5.9-4.3c-3,0.1-5.3,1.7-6,4.7
		c-0.9,3.5-0.9,7.1,0.1,10.6c0.8,2.9,2.9,4.4,5.9,4.5c3.2,0.1,5.4-1.2,6.4-4.1c0.6-1.9,1.6-2.5,3.4-2.4c1.9,0.1,3.8,0.1,5.7,0
		c1.9,0,2.5,0.9,2.3,2.7c-0.6,5.2-3.1,9.2-8,11.2c-6.4,2.6-12.9,2.5-19.2,0c-4.3-1.7-7-5-8.4-9.3c-1.5-4.8-1.5-9.7-0.4-14.6
		c1.5-6.3,5.4-10.2,11.7-11.7c5.5-1.3,10.9-1.3,16.2,1.1c4.6,2.1,7.2,5.7,8.1,10.7c0.5,2.8-0.1,3.4-2.9,3.5
		C144.4,297.5,143.5,297.5,142.5,297.5z"/>
	<path class="st0" d="M184.8,319c-0.9,0-1.8-0.1-2.7,0c-2.4,0.3-4-0.6-4.5-3.1c-0.3-1.5-1.3-2-2.8-2c-2.6,0-5.2,0-7.7,0
		c-1.8,0-2.9,0.7-3.2,2.4c-0.4,2.1-1.7,2.8-3.8,2.7c-2.2-0.1-4.3,0-6.5,0c-2.6,0-2.8-0.4-2-2.8c2.9-7.9,5.8-15.8,8.6-23.7
		c1-2.7,2-5.3,2.9-8c0.6-1.6,1.5-2.5,3.3-2.4c3.2,0.1,6.3,0.1,9.5,0c1.4,0,2.3,0.6,2.8,2c3.9,10.8,7.9,21.6,11.8,32.4
		c0.6,1.7,0.2,2.6-1.7,2.6C187.4,319,186.1,319,184.8,319C184.8,319,184.8,319,184.8,319z M170.7,305.4c3.1,0,3.6-0.2,3.2-1.9
		c-0.7-2.7-1.5-5.4-2.3-8.1c-0.1-0.4-0.4-0.9-0.7-0.9c-0.7-0.2-0.7,0.5-0.9,1c-0.7,2.1-1.3,4.3-1.9,6.4
		C167.1,305.2,167.3,305.4,170.7,305.4z"/>
	<path class="st0" d="M206.1,227.2c3.4,0.2,6.7,0.4,9.8,1.7c3.4,1.5,5.6,3.9,5.7,7.7c0.2,3.6,0.1,7.2,0.2,10.7
		c0,1.6,0.4,2.8,2.2,3.5c2.5,0.9,1.3,3.3,1.4,5c0.1,1.5-0.9,2.3-2.2,2.5c-3.9,0.7-7.7,0.8-11-1.7c-1.2-1-2.3-0.5-3.4,0.1
		c-3.7,1.9-7.7,2.5-11.9,1.9c-4.4-0.7-6.8-2.9-7.3-6.7c-0.6-4.8,1.2-8.7,5.2-10.4c3.7-1.6,7.7-1.8,11.7-2c1.3-0.1,3.3,0.5,3.2-1.7
		c0-1.9-1.6-2.6-3.3-2.8c-1.4-0.2-2.9-0.2-3.7,1c-1.3,1.8-3.1,1.8-4.9,1.7c-1.7,0-3.5,0-5.2,0c-2,0-2.5-1.1-2.1-2.8
		c0.7-2.8,2.6-4.6,5.1-5.8C198.9,227.6,202.5,227.4,206.1,227.2z M204.3,251.4c2.3,0,4.4-1,5.2-2.4c0.6-1,0.8-2.1,0.2-3.1
		c-0.6-0.9-1.6-0.8-2.5-0.7c-1.3,0.2-2.6,0.4-3.8,1c-1.3,0.6-2.3,1.5-2,3.1C201.7,251,203.1,251.3,204.3,251.4z"/>
	<path class="st0" d="M36.5,238.3c0-5.3,0.1-10.7,0-16c0-2.3,0.8-3.3,3.2-3.3c8.5,0.1,17,0.1,25.5,0c2.1,0,3,0.8,3,3
		c0.2,6.6,0.3,6.6-6.3,6.6c-2.7,0-5.3,0-8,0c-4,0-4.4,0.3-4.4,3.3c0,2.8,0.5,3.1,4.5,3.1c2.9,0,5.8,0.1,8.7,0c2,0,2.8,0.9,2.9,2.8
		c0.2,6.3,0.3,6.3-5.9,6.3c-2.1,0-4.2,0-6.2,0c-3.8,0-4,0.2-4,3.9c0,2.4,0,4.8,0,7.2c0,2-0.8,2.9-2.8,2.8c-2.4-0.1-4.8-0.1-7.2,0
		c-2.1,0.1-2.8-0.9-2.8-2.9C36.5,249.6,36.5,243.9,36.5,238.3C36.5,238.3,36.5,238.3,36.5,238.3z"/>
	<path class="st0" d="M118.5,245.3c-2.8,0-5.7-0.1-8.5,0c-2.4,0.1-3,1.4-1.8,3.5c1.8,3.1,7.4,3.3,9.4,0.1c1-1.5,2.1-2,3.7-1.9
		c1.8,0.1,3.7,0,5.5,0c2.4,0.1,2.9,0.9,2.3,3.2c-0.8,3.3-3,5.6-6.1,6.8c-6.6,2.5-13.2,2.5-19.7-0.2c-3.5-1.5-5.8-4.1-6.9-7.8
		c-1.1-3.7-1.1-7.4-0.2-11.1c1.1-4.7,4.1-7.8,8.6-9.4c5.5-1.9,11.2-1.8,16.6,0.3c5.5,2.1,9,8.7,8.1,14.4c-0.2,1.5-1.2,1.9-2.5,1.9
		C124.2,245.2,121.3,245.2,118.5,245.3C118.5,245.2,118.5,245.3,118.5,245.3z M112.5,239.5c0.9,0,1.8,0,2.7,0c0.8,0,1.7,0,2-1
		c0.3-0.9-0.3-1.6-0.9-2.2c-1.9-1.9-6.1-1.7-7.8,0.5c-0.4,0.5-0.9,1.1-0.6,1.8c0.3,0.9,1.1,0.9,1.8,0.9
		C110.7,239.5,111.6,239.5,112.5,239.5z"/>
	<path class="st0" d="M326,245.3c-2.7,0-5.5,0-8.2,0c-1,0-2.1-0.1-2.6,1.1c-0.4,1,0.1,2,0.7,2.8c1.9,2.7,7.2,2.8,9,0
		c1.1-1.8,2.4-2.3,4.3-2.2c1.7,0.1,3.5,0.1,5.2,0c2.1,0,2.6,1.1,2.2,2.9c-0.8,3.7-3.2,6.1-6.6,7.3c-6.3,2.3-12.8,2.3-19.1-0.2
		c-3.7-1.5-6.2-4.3-7.2-8.1c-2.9-11.9,1.8-21.6,16.4-21.6c4.9,0,9.7,0.8,13.2,4.8c2.9,3.2,3.5,7.1,3.5,11.2c0,1.5-1.1,1.9-2.4,1.9
		C331.7,245.2,328.8,245.2,326,245.3C326,245.2,326,245.3,326,245.3z M320,239.5C320,239.5,320,239.5,320,239.5c0.9,0,1.8,0,2.7,0
		c0.8,0,1.8,0,2-1c0.2-0.9-0.3-1.6-0.9-2.2c-1.4-1.5-4.8-1.8-6.7-0.5c-1,0.6-2,1.5-1.7,2.8c0.3,1.2,1.6,0.9,2.6,1
		C318.6,239.6,319.3,239.5,320,239.5z"/>
	<path class="st0" d="M156.3,245.3c-2.8,0-5.7-0.1-8.5,0c-2.2,0.1-2.7,1.3-1.9,3.2c1.5,3.3,7.5,3.7,9.5,0.5c1-1.6,2.2-2.1,3.9-2
		c1.7,0.1,3.5,0,5.2,0c2.5,0.1,3.1,0.8,2.4,3.3c-0.9,3.4-3.2,5.7-6.4,6.9c-6.4,2.3-12.9,2.3-19.3-0.2c-3.6-1.5-6.1-4.2-7-8
		c-2.9-11.7,1.6-21.6,16.3-21.7c2.3,0,4.7,0.3,6.9,0.9c7.4,2.2,10,8.2,9.9,15c0,1.5-1,2-2.3,2C162.1,245.2,159.2,245.2,156.3,245.3
		C156.3,245.2,156.3,245.3,156.3,245.3z M150.3,239.5C150.3,239.5,150.3,239.5,150.3,239.5c0.9,0,1.8,0,2.7,0c0.8,0,1.8,0.1,2.1-0.9
		c0.4-1-0.3-1.8-1-2.4c-1.8-1.8-5.7-1.6-7.5,0.3c-0.6,0.6-1.2,1.3-1,2.2c0.3,1.1,1.3,0.8,2.1,0.9
		C148.6,239.6,149.5,239.5,150.3,239.5z"/>
	<path class="st0" d="M229.1,242.9c0-4,0-8,0-12c0-2,0.8-2.9,2.8-2.9c1.6,0.1,3.2,0,4.7,0c1,0,1.8,0.4,2.2,1.4
		c0.6,1.9,1.7,1.3,2.8,0.5c3.1-2.2,6.6-3,10.4-2.4c4.6,0.7,7.5,3.4,8,8.3c0.7,6.7,0.2,13.5,0.2,20.2c0,1.4-0.8,2.1-2.2,2.1
		c-2.2,0-4.5-0.1-6.7,0c-2,0.1-2.6-0.9-2.6-2.8c0-4.2,0-8.5,0-12.7c0-0.8,0-1.7-0.1-2.5c-0.2-2.1-1-3.7-3.4-3.9
		c-2.1-0.2-4.1,1.4-4.2,3.7c-0.2,3.1-0.2,6.3-0.2,9.5c0,2.1,0,4.2-0.1,6.2c0,1.6-0.8,2.4-2.5,2.4c-2.2,0-4.3-0.1-6.5,0
		c-1.9,0.1-2.7-0.9-2.7-2.7C229.1,251.2,229.1,247,229.1,242.9z"/>
	<path class="st0" d="M195.5,300.4c0-5.2,0-10.3,0-15.5c0-2,0.8-2.9,2.8-2.9c8.2,0,16.3,0,24.5,0c1.8,0,2.5,0.8,2.6,2.5
		c0.4,6.6,0.4,6.7-6.2,6.7c-3,0-6,0-9,0c-2.1,0-2.6,1.2-2.6,3.1c0,1.9,0.7,2.8,2.7,2.7c3.3,0,6.7,0,10,0c1.9,0,2.6,0.8,2.7,2.7
		c0.3,6,0.3,6.1-5.8,6.1c-2,0-4,0-6,0c-3.2,0-3.5,0.3-3.5,3.6c0,2.3,0,4.7,0,7c0,1.7-0.8,2.4-2.5,2.4c-2.2,0-4.5-0.1-6.7,0
		c-2,0.1-2.8-0.9-2.8-2.9C195.5,310.9,195.5,305.7,195.5,300.4z"/>
	<path class="st0" d="M292.9,240.4c-1,0-2,0-3,0c-1.4,0-2.3-0.5-2.9-1.9c-1.2-2.5-3.2-3.4-5.9-3c-2.3,0.4-3.8,2-4,4.7
		c-0.2,1.7-0.2,3.5-0.1,5.2c0.2,2.9,1.6,4.6,4,5c3.2,0.6,5.2-0.3,6.6-3.1c0.3-0.5,0.4-1.3,1-1.4c3-0.7,6.1-0.7,9.1,0
		c1.1,0.2,0.9,1.5,0.8,2.4c-0.5,3.1-2,5.6-4.6,7.4c-7,4.8-19.9,3.8-25.1-2c-4.4-5-4.4-11-2.6-17c1.6-5.3,5.7-8,11-9
		c4.6-0.9,9.1-0.7,13.6,0.9c3.8,1.4,6.5,3.9,7.6,8c0.7,2.8,0.1,3.6-2.8,3.7C294.5,240.4,293.7,240.4,292.9,240.4
		C292.9,240.4,292.9,240.4,292.9,240.4z"/>
	<path class="st0" d="M172.6,237.3c0-5.8,0.1-11.6,0-17.5c0-2.3,0.9-3.2,3.1-3.1c2,0.1,4,0,6,0.1c1.6,0,2.4,0.8,2.4,2.5
		c0,12.1,0,24.3,0,36.4c0,1.7-0.8,2.4-2.5,2.4c-2.1,0-4.2-0.1-6.2,0c-2.1,0.1-2.8-0.9-2.8-2.8C172.6,249.3,172.6,243.3,172.6,237.3z
		"/>
	<path class="st0" d="M71,243c0-4,0-8,0-12c0-2.1,0.8-3.1,3-3c1.5,0.1,3,0,4.5,0c0.7,0,1.5,0,1.8,0.6c1,2.4,2.1,1.5,3.4,0.3
		c0.7-0.6,1.6-1,2.4-1.2c5.1-1.6,6.7-0.4,6.7,4.8c0,0.5,0,1,0,1.5c0,3.4-0.2,3.5-3.5,3.7c-4.7,0.3-6.5,1.9-6.7,6.6
		c-0.2,3.6-0.1,7.2-0.1,10.7c0,2.1-0.8,3.1-3,3c-1.9-0.1-3.8-0.1-5.7,0c-2,0.1-2.8-0.9-2.8-2.8C71.1,251.2,71.1,247.1,71,243z"/>
	<path class="st0" d="M278,287.7c0.5,4.7-2.3,8.5-4.4,12.6c-0.9,1.8-3,1.5-4.5,0.9c-1.6-0.6-0.5-2-0.2-3c0.3-1,0.7-1.9,1.1-2.8
		c0.7-1.6,1.4-3.2-1.3-3.8c-0.5-0.1-0.9-0.6-0.9-1.1c-0.1-2.6-0.9-5.3,0.5-7.6c1-1.7,3.4-0.7,5.2-0.8C278,282,278,282.1,278,287.7z"
		/>
</g>
</svg>
